<?xml version="1.0" encoding="UTF-8"?>
<svg xmlns="http://www.w3.org/2000/svg" id="Layer_1" data-name="Layer 1" viewBox="0 0 865.76 682.89">
  <g>
    <path d="M247.13,529.36s-38.6,3.37-45.6,33.05c0,0,30.76-1.35,45.6-33.05Z" fill="#7cd093" stroke="#002346" stroke-miterlimit="10"></path>
    <path d="M159.56,526.05s10.85,33.14,40.1,34.75c0,0-11-27.27-40.1-34.75Z" fill="#7cd093" stroke="#002346" stroke-miterlimit="10"></path>
    <path d="M192.41,530.96s14.92-23.85,49.32-22.5c0,0-19.05,24.78-49.32,22.5Z" fill="#7cd093" stroke="#002346" stroke-miterlimit="10"></path>
    <path d="M147.39,490.37s-.56,36.56,29.56,45.59c0,0-1.62-25.27-29.56-45.59Z" fill="#7cd093" stroke="#002346" stroke-miterlimit="10"></path>
    <path d="M192.86,508.39s5.03-21.51,36.73-21.51c0,0-7.37,20.76-36.73,21.51Z" fill="#7cd093" stroke="#002346" stroke-miterlimit="10"></path>
    <path d="M162.17,473.39s-2.24,30.44,14.98,41.49c0,0,1.07-28.62-14.98-41.49Z" fill="#7cd093" stroke="#002346" stroke-miterlimit="10"></path>
    <path d="M194.96,491.32s-7.92-34.79,11-53.68c0,0,8.32,27.77-11,53.68Z" fill="#7cd093" stroke="#002346" stroke-miterlimit="10"></path>
    <path d="M342.29,252.5s-14.05-11.82-26.96,0c0,0-9.22,4.49-8.03,28.05l-.11,12.09s-1.76,11.87-14.39,22.8c0,0-25.13,22.86,0,43.19,0,0,15.02,6.37,39.3,2.56,0,0,23.21-7.73,16.33-41.85,0,0-1.21-7.28-7.76-20.36,0,0-3.34-9.95,1.8-13.54" fill="#002346" stroke="#002346" stroke-miterlimit="10"></path>
    <path d="M407.64,350.64c0,15.51-42.49,17.53-42.49,17.53-28.33,1.35-24.28-22.26-24.28-22.26l1.35-23.6,9.86-4.72v-36.34l-3.8-5.81,30.36-7.76,5.25,31.16,3.82,16.46,11.17,.94c6.07,11.46,8.77,34.39,8.77,34.39Z" fill="#f0b1bf" stroke="#002346" stroke-linecap="round" stroke-linejoin="round"></path>
    <path d="M523.64,441.69l-27.65,20.23c-22.26,11.46-36.42-11.46-36.42-11.46l-31.55-49.47-4.19,35.99c1.25,1.25,2.13,2.49,2.76,3.67,1.41,2.65,1.25,5.73-.19,8.19-.58,1-1.38,1.9-2.36,2.63-14.22,10.47-46.74,10.47-46.74,10.47-20.09,.36-29.9-3.43-34.66-6.97-2.85-2.12-4.46-5.53-4.46-9.08v-12.27l-6.07-22.26-11.78,33.57c-1.83,5.21-4.26,10.21-7.37,14.78-12.42,18.25-25.61,16.42-34.33,11.86-5.13-2.68-9.39-6.77-12.51-11.65l-14.27-22.27c9.44,0,21.58-16.19,21.58-16.19,16.19-21.58,14.84-38.44,14.84-38.44l6.07,9.44,12.97-43.51c7.58-22.61,34.91-26.63,34.91-26.63l-1.35,23.6s-4.05,23.6,24.28,22.26c0,0,42.49-2.02,42.49-17.53,0,0-2.7-22.93-8.77-34.39,37.77-2.02,48.56,23.6,48.56,23.6l38.44,60.02,18.21-11.46c-4.72,39.79,19.56,53.28,19.56,53.28Z" fill="#6067e6" stroke="#002346" stroke-linecap="round" stroke-linejoin="round"></path>
    <path d="M273.43,421.46s-12.14,16.19-21.58,16.19c0,0-2.16-3.88,.78-14.42,1.39-5,3.52-9.76,6.19-14.2,6.7-11.12,23.08-36.09,29.45-26.01,0,0,1.35,16.86-14.84,38.44Z" fill="#fff" stroke="#0d2445" stroke-linecap="round" stroke-linejoin="round"></path>
    <path d="M230.27,349.3l30.31,84.91s18.58-12.1,26.17-39.4l-34.64-51.07c-.7-1.03-1.16-2.19-1.36-3.41-.38-2.38-.97-6.68-1.06-11.14-.06-2.93,.6-5.83,1.87-8.48l4.53-9.52c.26-.54-.07-1.19-.66-1.28-1.73-.27-5.03-.2-6.95,3.65l-2.98,5.46c-.61,1.12-1.96,1.6-3.14,1.13h0c-.81-.32-1.39-1.04-1.54-1.9l-4.17-23.8c-.18-1.04-1.08-1.8-2.14-1.8h0c-1.25,0-2.25,1.06-2.17,2.31l1.22,18.8c.01,.22-.29,.29-.38,.09l-7.81-18.22c-.61-1.42-2.47-1.77-3.55-.66l-.75,.77c-.57,.58-.76,1.43-.5,2.2l5.08,15.25c.07,.22-.23,.37-.36,.16l-7.31-12.19c-.92-1.53-3.07-1.7-4.22-.33h0c-.63,.76-.78,1.81-.38,2.71l7.04,15.84c.09,.2-.16,.37-.32,.22l-8.84-8.35c-1.25-1.18-3.3-.76-3.98,.83h0c-.38,.89-.21,1.91,.43,2.63l9.55,10.67c.57,.63,.98,1.39,1.22,2.21l3.69,12.92s2.02,7.42,8.09,8.77Z" fill="#f0b1bf" stroke="#002346" stroke-linecap="round" stroke-linejoin="round"></path>
    <path d="M251.01,341.42c1.04,.12,1.93,.49,2.63,1.12,3.66,3.29,.72,12.53-6.57,20.65-7.29,8.12-16.17,12.03-19.83,8.74-3.31-2.97-1.23-10.8,4.58-18.27" fill="none" stroke="#002346" stroke-linecap="round" stroke-linejoin="round"></path>
    <line x1="332.1" y1="411.34" x2="324.68" y2="389.76" fill="none" stroke="#002346" stroke-linecap="round" stroke-linejoin="round"></line>
    <path d="M485.87,399.88s-9.44,8.09-9.44,18.21" fill="none" stroke="#002346" stroke-linecap="round" stroke-linejoin="round"></path>
    <path d="M508.82,387.01c1.87,.75,4.33,2.82,7.45,7.47,2.43,3.62,4.39,7.54,5.9,11.63,3.73,10.07,10.82,32.46,1.46,35.58,0,0-23.63-13.13-19.73-51.68,.24-2.37,2.71-3.89,4.92-3Z" fill="#fff" stroke="#0d2445" stroke-linecap="round" stroke-linejoin="round"></path>
    <path d="M503.6,402.76l40.94-35.26s3.37-24.28,13.49-21.58l16.86-21.58s4.72,.67,2.7,7.42l-8.09,16.19s6.74-.67,5.4,5.4c0,0,4.05,2.02,2.02,6.74,0,0,3,.83,1.25,5.55-.52,1.4-1.35,2.65-2.37,3.74l-4.28,4.54s-4.71,7.08-12.13,10.45l-41.64,52.58s-13.94-12.42-14.14-34.19Z" fill="#f0b1bf" stroke="#002346" stroke-linecap="round" stroke-linejoin="round"></path>
    <path d="M557.21,387.11c.92,8.06-1.07,14.65-5.12,15.65-4.83,1.18-10.75-6.05-13.22-16.15-2.48-10.1-.57-19.25,4.25-20.43,.54-.13,1.09-.16,1.65-.09" fill="none" stroke="#002346" stroke-linecap="round" stroke-linejoin="round"></path>
    <path d="M547.48,401.69c-1.13,5.34-3.6,9.03-6.83,9.39-5.24,.59-10.49-7.77-11.72-18.69-1.24-10.92,2-20.25,7.24-20.84,.8-.09,1.59,.03,2.38,.33" fill="none" stroke="#002346" stroke-linecap="round" stroke-linejoin="round"></path>
    <path d="M558.03,345.92l8.77,.67s-.8,4.11-5.12,4.75h-4.59s.94,8.06-1.08,13.46" fill="none" stroke="#002346" stroke-linecap="round" stroke-linejoin="round"></path>
    <path d="M569.5,347.95s-15.51,14.84-7.42,17.53c0,0,0,4.05,3.37,4.05,0,0-1.38,6.07,6.06,4.38" fill="none" stroke="#002346" stroke-linecap="round" stroke-linejoin="round"></path>
    <line x1="562.08" y1="365.48" x2="574.89" y2="353.34" fill="none" stroke="#002346" stroke-linecap="round" stroke-linejoin="round"></line>
    <line x1="565.45" y1="369.53" x2="576.91" y2="360.09" fill="none" stroke="#002346" stroke-linecap="round" stroke-linejoin="round"></line>
    <path d="M423.82,436.97s-12.14,8.77-45.86,8.77" fill="none" stroke="#002346" stroke-linecap="round" stroke-linejoin="round"></path>
    <path d="M350.06,318.56s4.46,24.02,16.19,32.53c4.01,2.91,9.58,2.23,12.74-1.58,3.92-4.73,8.65-14.41,10.24-34.07" fill="none" stroke="#002346" stroke-linecap="round" stroke-linejoin="round"></path>
    <circle cx="373.24" cy="352.67" r="2.7" fill="#e8c854" stroke="#002346" stroke-miterlimit="10"></circle>
    <line x1="293.76" y1="391.56" x2="303.78" y2="404.6" fill="none" stroke="#002346" stroke-linecap="round" stroke-linejoin="round"></line>
    <path d="M428.54,458.55c-37.09,26.98-85.91,6.86-85.91,6.86v-10.46c4.76,3.55,14.57,7.34,34.66,6.97,0,0,32.53,0,46.74-10.47,.98-.73,1.78-1.63,2.36-2.63l2.15,9.73Z" fill="#fff" stroke="#0d2445" stroke-linecap="round" stroke-linejoin="round"></path>
    <path d="M449.57,498.79c-.94-2.8-2.13-5.52-3.55-8.13l-17.47-32.1" fill="none" stroke="#0d2445" stroke-linecap="round" stroke-linejoin="round"></path>
    <path d="M448.92,553.59l3.13-33.59c.31-3.37,.29-6.74-.05-10.08" fill="none" stroke="#0d2445" stroke-linecap="round" stroke-linejoin="round"></path>
    <polyline points="381.98 559.07 389.43 593.43 445.2 593.55 447.87 564.89" fill="none" stroke="#0d2445" stroke-linecap="round" stroke-linejoin="round"></polyline>
    <polyline points="305.93 572.62 298.77 593.55 360.47 593.55 377.89 558.53" fill="none" stroke="#0d2445" stroke-linecap="round" stroke-linejoin="round"></polyline>
    <line x1="331.1" y1="499.11" x2="309.6" y2="561.92" fill="none" stroke="#0d2445" stroke-linecap="round" stroke-linejoin="round"></line>
    <line x1="342.63" y1="465.41" x2="334.86" y2="488.1" fill="none" stroke="#0d2445" stroke-linecap="round" stroke-linejoin="round"></line>
    <line x1="128.02" y1="593.35" x2="642.45" y2="593.35" fill="none" stroke="#002346" stroke-linecap="round" stroke-linejoin="round"></line>
    <path d="M251.85,562.41v12.25c0,10.37-8.4,18.77-18.77,18.77h-69.69c-10.37,0-18.77-8.4-18.77-18.77v-12.25h107.23Z" fill="#e8c854" stroke="#002346" stroke-miterlimit="10"></path>
    <rect x="144.62" y="562.41" width="107.23" height="9.44" fill="#fff" stroke="#0d2445" stroke-linecap="round" stroke-linejoin="round"></rect>
    <path d="M200.59,464.62s-18.88,66.77,0,97.79" fill="none" stroke="#002346" stroke-linecap="round" stroke-linejoin="round"></path>
    <path d="M247.13,529.36s-26.46,10.12-45.6,33.05" fill="none" stroke="#002346" stroke-linecap="round" stroke-linejoin="round"></path>
    <path d="M159.56,526.05s23.67,26.4,40.1,34.75" fill="none" stroke="#002346" stroke-linecap="round" stroke-linejoin="round"></path>
    <path d="M192.41,530.96s20.99-17.78,49.32-22.5" fill="none" stroke="#002346" stroke-linecap="round" stroke-linejoin="round"></path>
    <path d="M147.39,490.37s17.22,35.29,29.56,45.59" fill="none" stroke="#002346" stroke-linecap="round" stroke-linejoin="round"></path>
    <path d="M192.86,508.39s20.54-17.46,36.73-21.51" fill="none" stroke="#002346" stroke-linecap="round" stroke-linejoin="round"></path>
    <path d="M162.17,473.39s9.19,31.71,14.98,41.49" fill="none" stroke="#002346" stroke-linecap="round" stroke-linejoin="round"></path>
    <path d="M483.84,575.22h93.44c3.89,0,7.05,3.16,7.05,7.05v4.12c0,3.89-3.16,7.05-7.05,7.05h-93.44v-18.21h0Z" fill="#428cca" stroke="#0d2445" stroke-miterlimit="10"></path>
    <path d="M483.84,579.94h68.92c2.16,0,3.91,1.75,3.91,3.91v2.29c0,2.16-1.75,3.91-3.91,3.91h-68.92v-10.12h0Z" fill="#fff" stroke="#0d2445" stroke-linecap="round" stroke-linejoin="round"></path>
    <path d="M510.15,557.01h59.05c3.89,0,7.05,3.16,7.05,7.05v4.12c0,3.89-3.16,7.05-7.05,7.05h-59.05v-18.21h0Z" fill="#e8c854" stroke="#002346" stroke-miterlimit="10"></path>
    <path d="M510.15,560.39h42.1c2.45,0,4.44,1.99,4.44,4.44v2.59c0,2.45-1.99,4.44-4.44,4.44h-42.1v-11.46h0Z" fill="#fff" stroke="#0d2445" stroke-linecap="round" stroke-linejoin="round"></path>
    <path d="M553.98,527.34v16.86c0,7.07-5.74,12.81-12.81,12.81s-12.81-5.74-12.81-12.81v-16.86h25.63Z" fill="#fff" stroke="#0d2445" stroke-linecap="round" stroke-linejoin="round"></path>
    <rect x="528.36" y="527.34" width="25.63" height="8.77" fill="#e6e6e6" stroke="#000" stroke-miterlimit="10"></rect>
    <path d="M553.65,532.74c5.03,0,9.1,4.08,9.1,9.1s-4.08,9.1-9.1,9.1c-.53,0-1.05-.05-1.56-.13" fill="none" stroke="#002346" stroke-linecap="round" stroke-linejoin="round"></path>
    <rect x="560.05" y="171.93" width="82.28" height="103.86" rx="10.2" ry="10.2" fill="#fff" stroke="#0d2445" stroke-linecap="round" stroke-linejoin="round"></rect>
    <path d="M579.47,210.74c0-2.65,.85-5.34,2.55-8.06,1.7-2.72,4.19-4.97,7.45-6.76,3.26-1.79,7.07-2.68,11.43-2.68,4.05,0,7.62,.75,10.71,2.24,3.1,1.49,5.49,3.52,7.18,6.09,1.69,2.57,2.53,5.36,2.53,8.37,0,2.37-.48,4.45-1.44,6.24-.96,1.79-2.11,3.33-3.43,4.63-1.33,1.3-3.7,3.48-7.14,6.55-.95,.87-1.71,1.63-2.28,2.28-.57,.66-1,1.26-1.28,1.8-.28,.54-.5,1.09-.65,1.63-.15,.54-.38,1.5-.69,2.87-.53,2.9-2.19,4.35-4.98,4.35-1.45,0-2.67-.47-3.66-1.42-.99-.95-1.49-2.36-1.49-4.23,0-2.34,.36-4.37,1.09-6.09,.73-1.72,1.69-3.22,2.89-4.52,1.2-1.3,2.82-2.84,4.86-4.62,1.79-1.56,3.08-2.74,3.87-3.54,.8-.8,1.47-1.68,2.01-2.66,.54-.98,.82-2.04,.82-3.18,0-2.23-.83-4.12-2.49-5.65-1.66-1.53-3.8-2.3-6.42-2.3-3.07,0-5.33,.77-6.78,2.32-1.45,1.55-2.68,3.83-3.68,6.84-.95,3.15-2.75,4.73-5.4,4.73-1.56,0-2.88-.55-3.96-1.65-1.07-1.1-1.61-2.29-1.61-3.58Zm20.42,45.87c-1.7,0-3.19-.55-4.46-1.65-1.27-1.1-1.9-2.64-1.9-4.63,0-1.76,.61-3.24,1.84-4.44,1.23-1.2,2.73-1.8,4.52-1.8s3.24,.6,4.44,1.8c1.2,1.2,1.8,2.68,1.8,4.44,0,1.95-.63,3.49-1.88,4.6-1.26,1.12-2.71,1.67-4.35,1.67Z" fill="#e8c854" stroke="#002346" stroke-miterlimit="10"></path>
    <rect x="411.01" y="107.18" width="82.28" height="103.86" rx="10.2" ry="10.2" fill="#fff" stroke="#0d2445" stroke-linecap="round" stroke-linejoin="round"></rect>
    <path d="M430.42,146c0-2.65,.85-5.34,2.55-8.06,1.7-2.72,4.19-4.97,7.45-6.76,3.26-1.79,7.07-2.68,11.43-2.68,4.05,0,7.62,.75,10.71,2.24,3.1,1.49,5.49,3.52,7.18,6.09,1.69,2.57,2.53,5.36,2.53,8.37,0,2.37-.48,4.45-1.44,6.24-.96,1.79-2.11,3.33-3.43,4.63-1.33,1.3-3.7,3.48-7.14,6.55-.95,.87-1.71,1.63-2.28,2.28-.57,.66-1,1.26-1.28,1.8-.28,.54-.5,1.09-.65,1.63-.15,.54-.38,1.5-.69,2.87-.53,2.9-2.19,4.35-4.98,4.35-1.45,0-2.67-.47-3.66-1.42-.99-.95-1.49-2.36-1.49-4.23,0-2.34,.36-4.37,1.09-6.09,.73-1.72,1.69-3.22,2.89-4.52,1.2-1.3,2.82-2.84,4.86-4.62,1.79-1.56,3.08-2.74,3.87-3.54,.8-.8,1.47-1.68,2.01-2.66,.54-.98,.82-2.04,.82-3.18,0-2.23-.83-4.12-2.49-5.65-1.66-1.53-3.8-2.3-6.42-2.3-3.07,0-5.33,.77-6.78,2.32-1.45,1.55-2.68,3.83-3.68,6.84-.95,3.15-2.75,4.73-5.4,4.73-1.56,0-2.88-.55-3.96-1.65-1.07-1.1-1.61-2.29-1.61-3.58Zm20.42,45.87c-1.7,0-3.19-.55-4.46-1.65-1.27-1.1-1.9-2.64-1.9-4.63,0-1.76,.61-3.24,1.84-4.44,1.23-1.2,2.73-1.8,4.52-1.8s3.24,.6,4.44,1.8c1.2,1.2,1.8,2.68,1.8,4.44,0,1.95-.63,3.49-1.88,4.6-1.26,1.12-2.71,1.67-4.35,1.67Z" fill="#91d7f0" stroke="#0d2445" stroke-linecap="round" stroke-linejoin="round"></path>
    <rect x="188.45" y="164.51" width="82.28" height="103.86" rx="10.2" ry="10.2" fill="#fff" stroke="#0d2445" stroke-linecap="round" stroke-linejoin="round"></rect>
    <path d="M207.87,203.32c0-2.65,.85-5.34,2.55-8.06,1.7-2.72,4.19-4.97,7.45-6.76,3.26-1.79,7.07-2.68,11.43-2.68,4.05,0,7.62,.75,10.71,2.24,3.1,1.49,5.49,3.52,7.18,6.09,1.69,2.57,2.53,5.36,2.53,8.37,0,2.37-.48,4.45-1.44,6.24-.96,1.79-2.11,3.33-3.43,4.63-1.33,1.3-3.7,3.48-7.14,6.55-.95,.87-1.71,1.63-2.28,2.28-.57,.66-1,1.26-1.28,1.8-.28,.54-.5,1.09-.65,1.63-.15,.54-.38,1.5-.69,2.87-.53,2.9-2.19,4.35-4.98,4.35-1.45,0-2.67-.47-3.66-1.42-.99-.95-1.49-2.36-1.49-4.23,0-2.34,.36-4.37,1.09-6.09,.73-1.72,1.69-3.22,2.89-4.52,1.2-1.3,2.82-2.84,4.86-4.62,1.79-1.56,3.08-2.74,3.87-3.54,.8-.8,1.47-1.68,2.01-2.66,.54-.98,.82-2.04,.82-3.18,0-2.23-.83-4.12-2.49-5.65-1.66-1.53-3.8-2.3-6.42-2.3-3.07,0-5.33,.77-6.78,2.32-1.45,1.55-2.68,3.83-3.68,6.84-.95,3.15-2.75,4.73-5.4,4.73-1.56,0-2.88-.55-3.96-1.65-1.07-1.1-1.61-2.29-1.61-3.58Zm20.42,45.87c-1.7,0-3.19-.55-4.46-1.65-1.27-1.1-1.9-2.64-1.9-4.63,0-1.76,.61-3.24,1.84-4.44,1.23-1.2,2.73-1.8,4.52-1.8s3.24,.6,4.44,1.8c1.2,1.2,1.8,2.68,1.8,4.44,0,1.95-.63,3.49-1.88,4.6-1.26,1.12-2.71,1.67-4.35,1.67Z" fill="#6067e6" stroke="#002346" stroke-linecap="round" stroke-linejoin="round"></path>
    <rect x="354.73" y="240.91" width="36.87" height="60.04" rx="18.44" ry="18.44" transform="translate(-82.59 200.65) rotate(-27.21)" fill="#f0b1bf" stroke="#002346" stroke-linecap="round" stroke-linejoin="round"></rect>
    <path d="M367.17,246.79s.88,19.29-14.73,24.14l-.36,10.33v8.76s-12.34-1.04-15.19-15.1c-1.81-8.93,.93-18.28,7.43-24.66,2.98-2.92,6.95-5.44,12.06-6.17,0,0,4.25-18.23,24.3-17.77,4.97,.11,9.5,3.19,11.03,7.92,.04,.11,.07,.23,.11,.35,1.99,6.81-3.23,13.63-10.32,13.36-.09,0-.17,0-.26-.01,0,0-5.29,5.61-14.06-1.14Z" fill="#002346" stroke="#002346" stroke-miterlimit="10"></path>
    <path d="M390.55,243.23s4.8,9.96-1.87,17.55l-4.41-8.58s-1.78-3.13-3.03-4.27l2.8-6.53,6.51,1.84Z" fill="#002346" stroke="#002346" stroke-miterlimit="10"></path>
    <ellipse cx="347.28" cy="275.45" rx="6.41" ry="7.76" transform="translate(-64.91 438.47) rotate(-60)" fill="#f0b1bf" stroke="#002346" stroke-linecap="round" stroke-linejoin="round"></ellipse>
    <circle cx="332.94" cy="493.76" r="5.66" fill="none" stroke="#0d2445" stroke-linecap="round" stroke-linejoin="round"></circle>
    <circle cx="379.82" cy="519.63" r="5.66" fill="none" stroke="#0d2445" stroke-linecap="round" stroke-linejoin="round"></circle>
    <circle cx="450.95" cy="504.27" r="5.66" fill="none" stroke="#0d2445" stroke-linecap="round" stroke-linejoin="round"></circle>
    <circle cx="380.63" cy="553.57" r="5.66" fill="none" stroke="#0d2445" stroke-linecap="round" stroke-linejoin="round"></circle>
    <circle cx="448.52" cy="559.23" r="5.66" fill="none" stroke="#0d2445" stroke-linecap="round" stroke-linejoin="round"></circle>
    <circle cx="307.89" cy="567.31" r="5.66" fill="none" stroke="#0d2445" stroke-linecap="round" stroke-linejoin="round"></circle>
    <line x1="380.63" y1="547.92" x2="379.82" y2="525.29" fill="none" stroke="#0d2445" stroke-linecap="round" stroke-linejoin="round"></line>
  </g>
  <path d="M98.31,29.57V653.32H693.8V29.57H98.31ZM687.21,633.57H104.9V55.93H687.21V633.57Z" fill="#fff" stroke="#0d2445" stroke-linecap="round" stroke-linejoin="round"></path>
  <rect x="104.9" y="55.93" width="582.31" height="577.64" fill="none" stroke="#002346" stroke-linecap="round" stroke-linejoin="round"></rect>
  <path d="M119.87,33.85h-12.32v17.29h14.83v-14.91l-2.52-2.38Z" fill="none" stroke="#002346" stroke-linecap="round" stroke-linejoin="round"></path>
  <line x1="675.93" y1="36.52" x2="666.52" y2="44.69" fill="none" stroke="#002346" stroke-linecap="round" stroke-linejoin="round"></line>
  <line x1="666.52" y1="36.52" x2="675.93" y2="44.69" fill="none" stroke="#002346" stroke-linecap="round" stroke-linejoin="round"></line>
  <polyline points="688.48 29.57 688.48 50.34 603.09 50.34 603.09 29.57" fill="none" stroke="#002346" stroke-linecap="round" stroke-linejoin="round"></polyline>
  <line x1="654.59" y1="50.34" x2="654.59" y2="30.27" fill="none" stroke="#002346" stroke-linecap="round" stroke-linejoin="round"></line>
  <line x1="627.59" y1="50.34" x2="627.59" y2="30.27" fill="none" stroke="#002346" stroke-linecap="round" stroke-linejoin="round"></line>
  <rect x="635.76" y="36.22" width="10.66" height="7.53" fill="none" stroke="#002346" stroke-linecap="round" stroke-linejoin="round"></rect>
  <line x1="617.54" y1="43.44" x2="608.13" y2="43.44" fill="none" stroke="#002346" stroke-linecap="round" stroke-linejoin="round"></line>
  <rect x="665.98" y="55.78" width="21.23" height="577.79" fill="#002346" stroke="#002346" stroke-miterlimit="10"></rect>
  <rect x="667.4" y="159.71" width="19.29" height="33.99" rx="9.65" ry="9.65" fill="#fff" stroke="#0d2445" stroke-linecap="round" stroke-linejoin="round"></rect>
  <rect x="44.12" y="118.59" width="107.57" height="377.95" fill="#fff" stroke="#0d2445" stroke-linecap="round" stroke-linejoin="round"></rect>
  <rect x="54.64" y="169.74" width="40.14" height="41.15" rx="6.25" ry="6.25" fill="#002346" stroke="#002346" stroke-miterlimit="10"></rect>
  <rect x="44.12" y="118.59" width="107.57" height="19.1" fill="#002346" stroke="#002346" stroke-miterlimit="10"></rect>
  <line x1="79.71" y1="140.81" x2="79.71" y2="149.11" fill="none" stroke="#002346" stroke-linecap="round" stroke-linejoin="round"></line>
  <line x1="83.83" y1="140.81" x2="83.83" y2="149.11" fill="none" stroke="#002346" stroke-linecap="round" stroke-linejoin="round"></line>
  <line x1="87.98" y1="140.81" x2="87.98" y2="149.11" fill="none" stroke="#002346" stroke-linecap="round" stroke-linejoin="round"></line>
  <line x1="92.12" y1="140.81" x2="92.12" y2="149.11" fill="none" stroke="#002346" stroke-linecap="round" stroke-linejoin="round"></line>
  <line x1="96.27" y1="140.81" x2="96.27" y2="149.11" fill="none" stroke="#002346" stroke-linecap="round" stroke-linejoin="round"></line>
  <line x1="100.42" y1="140.81" x2="100.42" y2="149.11" fill="none" stroke="#002346" stroke-linecap="round" stroke-linejoin="round"></line>
  <line x1="104.57" y1="140.81" x2="104.57" y2="149.11" fill="none" stroke="#002346" stroke-linecap="round" stroke-linejoin="round"></line>
  <line x1="108.72" y1="140.81" x2="108.72" y2="149.11" fill="none" stroke="#002346" stroke-linecap="round" stroke-linejoin="round"></line>
  <line x1="112.84" y1="140.81" x2="112.84" y2="149.11" fill="none" stroke="#002346" stroke-linecap="round" stroke-linejoin="round"></line>
  <line x1="116.99" y1="140.81" x2="116.99" y2="149.11" fill="none" stroke="#002346" stroke-linecap="round" stroke-linejoin="round"></line>
  <path d="M86.3,192.91l-19.85-16.43c-.64-.53-1.58-.44-2.11,.19-.26,.31-.38,.7-.34,1.1l2.33,25.76c.07,.63,.51,1.14,1.12,1.3h.37c.49,0,.95-.24,1.24-.63l5.76-8.47h10.43c.84-.03,1.5-.73,1.48-1.58-.01-.42-.2-.82-.53-1.1l.09-.14Z" fill="none" stroke="#fff" stroke-linecap="round" stroke-linejoin="round"></path>
  <path d="M133.07,193.3l-18.14-15.07c-.3-.25-.76-.01-.72,.38l2.16,23.5c.04,.41,.57,.55,.8,.21l5.52-7.93c.08-.12,.21-.19,.36-.19l9.76-.13c.41,0,.59-.52,.28-.78Z" fill="#002346"></path>
  <polygon points="141.89 208.73 141.52 203.43 136.79 207.87 141.89 208.73" fill="#fff"></polygon>
  <polygon points="141.89 377.62 141.52 372.32 136.79 376.78 141.89 377.62" fill="#fff"></polygon>
  <polygon points="141.89 429.46 141.52 424.16 136.79 428.62 141.89 429.46" fill="#002346"></polygon>
  <polygon points="141.89 482.62 141.52 477.32 136.79 481.76 141.89 482.62" fill="#002346"></polygon>
  <polygon points="92.41 317.77 92.04 312.47 87.31 316.93 92.41 317.77" fill="#002346"></polygon>
  <polygon points="92.41 377.62 92.04 372.32 87.31 376.78 92.41 377.62" fill="#fff"></polygon>
  <polygon points="92.41 429.46 92.04 424.16 87.31 428.62 92.41 429.46" fill="#002346"></polygon>
  <polygon points="92.41 482.62 92.04 477.32 87.31 481.76 92.41 482.62" fill="#002346"></polygon>
  <rect x="54.91" y="251.78" width="34.12" height="4.52" transform="translate(-168.12 144.16) rotate(-49.59)" fill="#002346"></rect>
  <path d="M74.26,240.17c-4.67-5.16-4.75-6.17-.95-12.02-5.16,4.67-6.2,4.75-12.02,.98,4.67,5.16,4.75,6.17,.98,11.99,5.13-4.67,6.17-4.75,11.99-.95Z" fill="#002346"></path>
  <path d="M94.95,242.96c-2.88-3.2-2.88-3.83-.61-7.41-3.17,2.88-3.8,2.88-7.41,.58,2.88,3.2,2.88,3.83,.61,7.41,3.17-2.88,3.8-2.91,7.41-.58Z" fill="#002346"></path>
  <path d="M89.16,255.18c-2.05-2.28-2.07-2.74-.43-5.3-2.25,2.05-2.71,2.1-5.27,.43,2.05,2.25,2.1,2.71,.43,5.27,2.25-2.05,2.74-2.07,5.27-.4Z" fill="#002346"></path>
  <polygon points="111.55 370.33 113.62 372.32 135.72 346.33 133.68 344.37 111.55 370.33" fill="#002346"></polygon>
  <path d="M140.85,257.41l-14.17-11.77c-.59-.49-1.47-.02-1.4,.74l1.67,18.31c.07,.8,1.1,1.07,1.56,.41l4-5.73c.16-.23,.42-.36,.69-.37l7.11-.08c.8,0,1.15-1.01,.54-1.52Z" fill="#002346"></path>
  <path d="M124.86,238.09c-8.41,0-15.27,4.96-15.27,11.07s6.86,11.07,15.27,11.07,15.27-4.96,15.27-11.07-6.86-11.07-15.27-11.07Zm0,20.81c-7.69,0-13.95-4.35-13.95-9.74s6.25-9.74,13.95-9.74,13.95,4.38,13.95,9.74-6.25,9.74-13.95,9.74Z" fill="#002346"></path>
  <path d="M115.58,256.92c-2.08,.02-3.79-1.66-3.8-3.75-.02-2.08,1.66-3.79,3.75-3.8,2.08-.02,3.79,1.66,3.8,3.75,0,.02,0,.04,0,.06-.02,2.06-1.68,3.73-3.75,3.75Zm0-6.2c-1.35-.02-2.46,1.07-2.48,2.42-.02,1.35,1.07,2.46,2.42,2.48,1.35,.02,2.46-1.07,2.48-2.42,0,0,0-.02,0-.03,0-1.34-1.08-2.43-2.42-2.45Z" fill="#002346"></path>
  <path d="M114.46,260.86l-.43-1.24c1.6-.43,2.96-1.46,3.8-2.88,.48-1.02,.55-2.18,.2-3.26l1.27-.43c.46,1.39,.36,2.91-.26,4.24-.98,1.76-2.64,3.05-4.58,3.57Z" fill="#002346"></path>
  <rect x="73.72" y="288.03" width="7.67" height="16.51" transform="translate(-186.79 141.62) rotate(-45)" fill="#002346"></rect>
  <path d="M54.92,314.54l1.9,1.93,9.37-9.37c-.42-.71-.3-1.61,.29-2.19,.71-.73,1.88-.73,2.61-.02,.73,.71,.73,1.88,.02,2.61-.59,.6-1.52,.72-2.25,.29l-9.34,9.37,1.79,1.76,15.79-4.12,4.12-8.64-11.53-11.53-8.64,3.89-4.12,16.02Z" fill="#002346"></path>
  <line x1="53.25" y1="277.89" x2="145.84" y2="277.89" fill="none" stroke="#002346" stroke-linecap="round" stroke-linejoin="round"></line>
  <rect x="129.39" y="288.03" width="7.67" height="16.51" transform="translate(-170.49 180.99) rotate(-45)" fill="#002346"></rect>
  <path d="M114.69,298.66l-4.21,15.88,1.9,1.93,9.37-9.37c-.42-.71-.3-1.61,.29-2.19,.71-.73,1.88-.73,2.61-.02,.73,.71,.73,1.88,.02,2.61-.59,.6-1.52,.72-2.25,.29l-9.34,9.37,1.79,1.76,15.99-4.12,4.12-8.64-11.53-11.53-8.76,4.03Z" fill="#002346"></path>
  <path d="M108.98,303.27c.58-1.12,1.18-2.33,1.79-3.69,1.2-2.23,1.35-4.87,.43-7.23-1.16-2.11-3.11-3.67-5.42-4.35-.41-.11-.83,.13-.94,.53s.13,.83,.53,.94c1.89,.55,3.5,1.82,4.47,3.54,.73,1.95,.58,4.12-.43,5.94-.61,1.35-1.21,2.54-1.79,3.63-2.88,5.76-4.67,9.25,2.88,14.98,.15,.04,.31,.04,.46,0,.23,0,.44-.11,.58-.29,.28-.3,.28-.77,0-1.07-6.69-4.75-5.48-7.18-2.56-12.94Z" fill="#002346"></path>
  <path d="M53.63,341.86v1.5c-.02,2.27,.1,4.54,.37,6.8l2.88-.66c-.2-1.53-.3-3.07-.29-4.61h11.53v25.67h-4.29v2.88h11.53v-2.88h-4.24v-25.67h11.12v5.39h2.88v-8.44l-31.5,.03Z" fill="#002346"></path>
  <ellipse cx="70.71" cy="413.12" rx="16.57" ry="11.96" fill="#fff" opacity=".44"></ellipse>
  <ellipse cx="70.71" cy="413.12" rx="16.57" ry="11.96" fill="none" stroke="#002346" stroke-linecap="round" stroke-linejoin="round" stroke-width="2"></ellipse>
  <path d="M121.2,413.47l18.21-19.74c.75-.79,1.94-.97,2.88-.43h0c1.12,.69,1.47,2.16,.78,3.29l-13.92,21.96-7.95-5.07Z" fill="#002346"></path>
  <path d="M118.81,415.11c4.5-.55,11.53,3.08,9.65,8.64-.62,1.31-1.71,2.34-3.05,2.88-4.09,1.66-8.5,2.38-12.91,2.1,1.34-.77,2.26-2.1,2.51-3.63,.02-1.56-.05-3.12-.23-4.67,0-2.22,1.56-5.22,4.03-5.39" fill="#002346"></path>
  <path d="M80.05,458.42c-.1-1.95-.77-3.82-1.93-5.39l-5.22,5.22c1.35,1.77,2.14,3.91,2.25,6.14,.16,2.04,.51,4.05,1.04,6.02l5.13-5.13c-.69-2.23-1.12-4.53-1.27-6.86Z" fill="#002346"></path>
  <path d="M74.03,464.47c-.1-1.95-.77-3.82-1.93-5.39l-5.24,5.22c1.38,1.75,2.17,3.89,2.28,6.11,.15,2.03,.49,4.05,1.01,6.02l5.13-5.13c-.66-2.22-1.08-4.51-1.24-6.83Z" fill="#002346"></path>
  <path d="M81.2,458.33c.14,2.04,.49,4.05,1.04,6.02l7.52-7.55-7.69-7.69-3.11,3.11c1.35,1.76,2.14,3.89,2.25,6.11Z" fill="#002346"></path>
  <path d="M67.98,470.41c-.1-1.95-.77-3.82-1.93-5.39l-4.38,4.38-3.23,9.97c-.16,.45,.08,.94,.53,1.1,.19,.07,.4,.07,.6,0l9.77-3.2c-.68-2.23-1.14-4.53-1.35-6.86Zm-6.2,6.66l1.73-5.27,3.49,3.49-5.22,1.79Z" fill="#002346"></path>
  <path d="M112.24,463.15l-5.76,5.76,13.54,13.57,5.76-5.76,.84,.84,13.54-13.57-15.19-15.21-13.57,13.57,.84,.81Zm7.81,15.91l-10.37-10.17,4.09-4.09,10.32,10.26-4.03,4.01Z" fill="#002346"></path>
  <polyline points="62.99 133.64 57.06 128.65 62.99 123.64" fill="none" stroke="#fff" stroke-linecap="round" stroke-linejoin="round"></polyline>
  <polyline points="56.48 133.64 50.54 128.65 56.48 123.64" fill="none" stroke="#fff" stroke-linecap="round" stroke-linejoin="round"></polyline>
  <g>
    <path d="M136.43,38.25c.73,.37,1.28,.9,1.67,1.59,.39,.69,.58,1.5,.58,2.43s-.19,1.74-.58,2.42c-.39,.68-.95,1.21-1.67,1.57-.73,.36-1.59,.54-2.58,.54h-2.84v-9.1h2.84c.99,0,1.85,.18,2.58,.55Zm.11,6.64c.62-.62,.93-1.5,.93-2.62s-.31-2.02-.93-2.65c-.62-.64-1.52-.95-2.68-.95h-1.65v7.16h1.65c1.18,0,2.07-.31,2.69-.93Z" fill="#002346"></path>
    <path d="M146.74,43.66h-5.72c.04,.71,.28,1.26,.72,1.65,.44,.4,.97,.59,1.6,.59,.51,0,.94-.12,1.29-.36,.34-.24,.59-.56,.72-.96h1.28c-.19,.69-.58,1.25-1.15,1.68-.58,.43-1.29,.65-2.14,.65-.68,0-1.29-.15-1.82-.46-.54-.3-.96-.74-1.26-1.3-.3-.56-.46-1.21-.46-1.95s.15-1.39,.44-1.95c.3-.56,.71-.99,1.25-1.29,.53-.3,1.15-.45,1.85-.45s1.28,.15,1.8,.44c.52,.3,.93,.7,1.21,1.22s.42,1.1,.42,1.76c0,.23-.01,.47-.04,.72Zm-1.49-2.14c-.2-.33-.47-.58-.82-.74-.34-.17-.72-.25-1.14-.25-.6,0-1.11,.19-1.53,.57-.42,.38-.66,.91-.72,1.59h4.52c0-.45-.1-.84-.3-1.17Z" fill="#002346"></path>
    <path d="M149.41,46.63c-.44-.19-.78-.45-1.03-.78-.25-.33-.39-.72-.42-1.16h1.23c.03,.36,.2,.65,.5,.88,.3,.23,.69,.34,1.18,.34,.45,0,.81-.1,1.07-.3,.26-.2,.39-.45,.39-.76s-.14-.55-.42-.7c-.28-.15-.71-.3-1.29-.45-.53-.14-.96-.28-1.3-.42-.34-.14-.62-.36-.86-.64-.24-.28-.36-.66-.36-1.12,0-.37,.11-.7,.33-1.01,.22-.3,.53-.55,.93-.72s.86-.27,1.37-.27c.79,0,1.43,.2,1.92,.6,.49,.4,.75,.95,.78,1.65h-1.19c-.03-.37-.18-.67-.45-.9-.27-.23-.64-.34-1.1-.34-.43,0-.77,.09-1.02,.27-.25,.18-.38,.42-.38,.72,0,.24,.08,.43,.23,.58s.34,.27,.58,.37c.23,.09,.55,.19,.96,.31,.51,.14,.93,.28,1.25,.41s.6,.34,.83,.61,.35,.62,.36,1.06c0,.39-.11,.74-.33,1.06-.22,.31-.52,.56-.92,.74-.4,.18-.85,.27-1.36,.27-.55,0-1.04-.09-1.48-.28Z" fill="#002346"></path>
    <path d="M155.2,38.24c-.16-.16-.23-.35-.23-.58s.08-.42,.23-.57,.35-.23,.58-.23,.4,.08,.55,.23,.23,.35,.23,.57-.08,.42-.23,.58-.34,.23-.55,.23-.42-.08-.58-.23Zm1.15,1.4v7.16h-1.19v-7.16h1.19Z" fill="#002346"></path>
    <path d="M162.96,39.93c.47,.27,.81,.61,1.04,1.02v-1.31h1.2v7.32c0,.65-.14,1.23-.42,1.74-.28,.51-.68,.91-1.19,1.2-.52,.29-1.12,.43-1.81,.43-.94,0-1.72-.22-2.35-.67-.63-.44-1-1.05-1.11-1.82h1.18c.13,.44,.4,.79,.81,1.05,.41,.27,.9,.4,1.48,.4,.65,0,1.19-.2,1.6-.61s.62-.98,.62-1.72v-1.5c-.23,.42-.58,.77-1.04,1.04s-1,.42-1.62,.42-1.21-.16-1.73-.47c-.52-.31-.92-.75-1.22-1.32-.3-.57-.44-1.21-.44-1.93s.15-1.37,.44-1.93c.3-.55,.7-.98,1.22-1.29,.52-.3,1.09-.46,1.73-.46s1.16,.14,1.63,.41Zm.71,1.87c-.22-.4-.51-.71-.88-.92s-.78-.32-1.22-.32-.85,.1-1.21,.31c-.37,.21-.66,.51-.88,.91-.22,.4-.33,.87-.33,1.41s.11,1.03,.33,1.43c.22,.41,.51,.71,.88,.93,.37,.21,.77,.32,1.21,.32s.85-.11,1.22-.32c.37-.21,.66-.52,.88-.93,.22-.41,.33-.88,.33-1.42s-.11-1.01-.33-1.41Z" fill="#002346"></path>
    <path d="M172.81,40.3c.54,.53,.81,1.29,.81,2.28v4.22h-1.18v-4.05c0-.71-.18-1.26-.54-1.64s-.85-.57-1.46-.57-1.13,.2-1.5,.59c-.37,.39-.56,.96-.56,1.71v3.96h-1.19v-7.16h1.19v1.02c.24-.37,.56-.65,.96-.85,.4-.2,.85-.3,1.34-.3,.87,0,1.58,.26,2.12,.79Z" fill="#002346"></path>
    <path d="M180.51,40.62v4.22c0,.35,.07,.59,.22,.74s.41,.22,.77,.22h.87v1.01h-1.07c-.66,0-1.16-.15-1.49-.46-.33-.3-.5-.81-.5-1.5v-4.22h-.93v-.98h.93v-1.8h1.19v1.8h1.87v.98h-1.87Z" fill="#002346"></path>
    <path d="M185.11,46.46c-.54-.3-.97-.74-1.28-1.3-.31-.56-.46-1.21-.46-1.95s.16-1.38,.48-1.94,.75-.99,1.3-1.29c.55-.3,1.16-.45,1.84-.45s1.29,.15,1.84,.45,.98,.73,1.3,1.29c.32,.56,.48,1.21,.48,1.95s-.16,1.39-.49,1.95c-.33,.56-.77,.99-1.33,1.3-.56,.31-1.18,.46-1.85,.46s-1.28-.15-1.82-.46Zm3.02-.89c.37-.2,.68-.5,.91-.9,.23-.4,.35-.89,.35-1.46s-.11-1.06-.34-1.46c-.23-.4-.52-.7-.89-.89-.37-.2-.76-.29-1.19-.29s-.83,.1-1.19,.29c-.36,.2-.65,.49-.87,.89-.22,.4-.33,.89-.33,1.46s.11,1.08,.32,1.48c.21,.4,.5,.7,.86,.89,.36,.2,.75,.29,1.18,.29s.83-.1,1.2-.3Z" fill="#002346"></path>
    <path d="M193.47,46.46c-.54-.3-.97-.74-1.28-1.3-.31-.56-.46-1.21-.46-1.95s.16-1.38,.48-1.94,.75-.99,1.3-1.29c.55-.3,1.16-.45,1.84-.45s1.29,.15,1.84,.45,.98,.73,1.3,1.29c.32,.56,.48,1.21,.48,1.95s-.16,1.39-.49,1.95c-.33,.56-.77,.99-1.33,1.3-.56,.31-1.18,.46-1.85,.46s-1.28-.15-1.82-.46Zm3.02-.89c.37-.2,.68-.5,.91-.9,.23-.4,.35-.89,.35-1.46s-.11-1.06-.34-1.46c-.23-.4-.52-.7-.89-.89-.37-.2-.76-.29-1.19-.29s-.83,.1-1.19,.29c-.36,.2-.65,.49-.87,.89-.22,.4-.33,.89-.33,1.46s.11,1.08,.32,1.48c.21,.4,.5,.7,.86,.89,.36,.2,.75,.29,1.18,.29s.83-.1,1.2-.3Z" fill="#002346"></path>
    <path d="M201.72,37.13v9.67h-1.19v-9.67h1.19Z" fill="#002346"></path>
    <path d="M204.8,46.63c-.44-.19-.78-.45-1.03-.78-.25-.33-.39-.72-.42-1.16h1.23c.03,.36,.2,.65,.5,.88,.3,.23,.69,.34,1.18,.34,.45,0,.81-.1,1.07-.3,.26-.2,.39-.45,.39-.76s-.14-.55-.42-.7c-.28-.15-.71-.3-1.29-.45-.53-.14-.96-.28-1.3-.42-.34-.14-.62-.36-.86-.64-.24-.28-.36-.66-.36-1.12,0-.37,.11-.7,.33-1.01,.22-.3,.53-.55,.93-.72s.86-.27,1.37-.27c.79,0,1.43,.2,1.92,.6,.49,.4,.75,.95,.78,1.65h-1.19c-.03-.37-.18-.67-.45-.9-.27-.23-.64-.34-1.1-.34-.43,0-.77,.09-1.02,.27-.25,.18-.38,.42-.38,.72,0,.24,.08,.43,.23,.58s.34,.27,.58,.37c.23,.09,.55,.19,.96,.31,.51,.14,.93,.28,1.25,.41s.6,.34,.83,.61,.35,.62,.36,1.06c0,.39-.11,.74-.33,1.06-.22,.31-.52,.56-.92,.74-.4,.18-.85,.27-1.36,.27-.55,0-1.04-.09-1.48-.28Z" fill="#002346"></path>
  </g>
  <g>
    <rect x="566.6" y="388.94" width="255.04" height="168.81" fill="#fff" stroke="#0d2445" stroke-linecap="round" stroke-linejoin="round"></rect>
    <rect x="690.37" y="396" width="76.2" height="32.45" fill="#e6e6e6" stroke="#0d2445" stroke-linecap="round" stroke-linejoin="round"></rect>
    <line x1="567.16" y1="428.45" x2="820.99" y2="428.45" fill="none" stroke="#002346" stroke-linecap="round" stroke-linejoin="round"></line>
    <g>
      <polyline points="775.41 416.32 780.98 411.64 775.41 406.94" fill="none" stroke="#002346" stroke-linecap="round" stroke-linejoin="round"></polyline>
      <polyline points="781.5 416.32 787.06 411.64 781.5 406.94" fill="none" stroke="#002346" stroke-linecap="round" stroke-linejoin="round"></polyline>
      <line x1="794.12" y1="404.12" x2="794.12" y2="420.34" fill="none" stroke="#002346" stroke-linecap="round" stroke-linejoin="round"></line>
      <line x1="801.17" y1="409.05" x2="813.89" y2="409.05" fill="none" stroke="#002346" stroke-linecap="round" stroke-linejoin="round"></line>
      <line x1="801.17" y1="411.87" x2="813.89" y2="411.87" fill="none" stroke="#002346" stroke-linecap="round" stroke-linejoin="round"></line>
      <line x1="801.17" y1="414.69" x2="813.89" y2="414.69" fill="none" stroke="#002346" stroke-linecap="round" stroke-linejoin="round"></line>
      <line x1="801.17" y1="417.51" x2="813.89" y2="417.51" fill="none" stroke="#002346" stroke-linecap="round" stroke-linejoin="round"></line>
    </g>
    <rect x="566.6" y="388.94" width="255.04" height="7.16" fill="#002346" stroke="#002346" stroke-miterlimit="10"></rect>
    <g>
      <path d="M705.47,412.54c-.43,.42-1.09,.63-1.98,.63h-1.46v3.17h-.99v-7.59h2.45c.86,0,1.51,.21,1.95,.62s.67,.95,.67,1.6-.22,1.16-.65,1.57Zm-.76-.55c.26-.24,.39-.58,.39-1.02,0-.94-.54-1.4-1.61-1.4h-1.46v2.79h1.46c.55,0,.96-.12,1.22-.36Z" fill="#002346"></path>
      <path d="M707.35,411.73c.25-.46,.59-.82,1.02-1.07,.43-.25,.91-.38,1.44-.38s.98,.11,1.36,.34c.38,.22,.67,.51,.86,.85v-1.09h1v5.97h-1v-1.11c-.2,.35-.49,.64-.88,.87-.39,.23-.84,.34-1.36,.34s-1.01-.13-1.44-.39c-.43-.26-.77-.63-1.01-1.1-.25-.47-.37-1.01-.37-1.61s.12-1.14,.37-1.61Zm4.41,.44c-.18-.33-.43-.59-.74-.77-.31-.18-.65-.27-1.02-.27s-.71,.09-1.01,.26c-.31,.17-.55,.43-.73,.76-.18,.33-.27,.73-.27,1.18s.09,.85,.27,1.19c.18,.34,.42,.6,.73,.77,.3,.18,.64,.27,1.01,.27s.71-.09,1.02-.27c.31-.18,.55-.44,.74-.77s.27-.73,.27-1.18-.09-.84-.27-1.18Z" fill="#002346"></path>
      <path d="M715.92,411.19v3.52c0,.29,.06,.5,.18,.61s.34,.18,.64,.18h.73v.84h-.89c-.55,0-.97-.13-1.24-.38-.27-.25-.41-.67-.41-1.25v-3.52h-.77v-.82h.77v-1.5h.99v1.5h1.56v.82h-1.56Z" fill="#002346"></path>
      <path d="M722.85,410.55c.36,.19,.65,.48,.85,.87,.21,.38,.31,.85,.31,1.4v3.52h-.98v-3.37c0-.59-.15-1.05-.45-1.37s-.7-.47-1.22-.47-.94,.16-1.25,.49c-.31,.33-.46,.8-.46,1.43v3.3h-.99v-8.05h.99v2.94c.2-.3,.47-.54,.81-.71s.73-.25,1.16-.25,.85,.1,1.22,.29Z" fill="#002346"></path>
      <path d="M728.06,411.19h-1.25v5.15h-.99v-5.15h-.77v-.82h.77v-.42c0-.67,.17-1.16,.52-1.46s.9-.46,1.66-.46v.83c-.44,0-.74,.09-.92,.26-.18,.17-.27,.45-.27,.84v.42h1.25v.82Z" fill="#002346"></path>
      <path d="M729.25,409.21c-.13-.13-.2-.29-.2-.48s.06-.35,.2-.48c.13-.13,.29-.2,.48-.2s.34,.07,.46,.2c.13,.13,.19,.29,.19,.48s-.06,.35-.19,.48c-.13,.13-.28,.2-.46,.2s-.35-.07-.48-.2Zm.96,1.16v5.97h-.99v-5.97h.99Z" fill="#002346"></path>
      <path d="M736.56,410.92c.45,.44,.68,1.07,.68,1.9v3.52h-.98v-3.37c0-.59-.15-1.05-.45-1.37s-.7-.47-1.22-.47-.94,.16-1.25,.49c-.31,.33-.46,.8-.46,1.43v3.3h-.99v-5.97h.99v.85c.2-.3,.46-.54,.8-.71,.34-.17,.71-.25,1.12-.25,.72,0,1.31,.22,1.76,.66Z" fill="#002346"></path>
      <path d="M738.86,411.73c.25-.46,.59-.82,1.02-1.07,.43-.25,.92-.38,1.45-.38,.46,0,.9,.11,1.29,.32s.7,.5,.91,.84v-3.16h1v8.05h-1v-1.12c-.2,.36-.49,.65-.87,.88-.38,.23-.83,.34-1.35,.34s-1.01-.13-1.44-.39c-.43-.26-.77-.63-1.02-1.1-.25-.47-.37-1.01-.37-1.61s.12-1.14,.37-1.61Zm4.41,.44c-.18-.33-.43-.59-.74-.77-.31-.18-.65-.27-1.02-.27s-.71,.09-1.01,.26c-.31,.17-.55,.43-.73,.76-.18,.33-.27,.73-.27,1.18s.09,.85,.27,1.19c.18,.34,.42,.6,.73,.77,.3,.18,.64,.27,1.01,.27s.71-.09,1.02-.27c.31-.18,.55-.44,.74-.77s.27-.73,.27-1.18-.09-.84-.27-1.18Z" fill="#002346"></path>
      <path d="M751.63,413.73h-4.77c.04,.59,.24,1.05,.6,1.38,.37,.33,.81,.49,1.33,.49,.43,0,.79-.1,1.07-.3,.29-.2,.49-.47,.6-.8h1.07c-.16,.57-.48,1.04-.96,1.4-.48,.36-1.07,.54-1.79,.54-.57,0-1.07-.13-1.52-.38s-.8-.62-1.05-1.08c-.25-.47-.38-1.01-.38-1.63s.12-1.16,.37-1.62c.25-.46,.59-.82,1.04-1.07s.96-.38,1.54-.38,1.07,.12,1.5,.37,.77,.59,1.01,1.02c.23,.43,.35,.92,.35,1.46,0,.19-.01,.39-.03,.6Zm-1.24-1.78c-.17-.27-.39-.48-.68-.62s-.6-.21-.95-.21c-.5,0-.93,.16-1.28,.48-.35,.32-.55,.76-.6,1.33h3.77c0-.38-.09-.7-.25-.97Z" fill="#002346"></path>
      <path d="M754.7,410.55c.32-.19,.72-.28,1.18-.28v1.02h-.26c-1.11,0-1.66,.6-1.66,1.81v3.24h-.99v-5.97h.99v.97c.17-.34,.42-.61,.75-.79Z" fill="#002346"></path>
    </g>
    <g>
      <path d="M652.83,413.21h-3.31l-.61,1.69h-1.04l2.74-7.54h1.14l2.73,7.54h-1.05l-.61-1.69Zm-.28-.81l-1.37-3.83-1.37,3.83h2.74Z" fill="#002346"></path>
      <path d="M656.68,406.85v8.05h-.99v-8.05h.99Z" fill="#002346"></path>
      <path d="M658.4,407.77c-.13-.13-.2-.29-.2-.48s.06-.35,.2-.48c.13-.13,.29-.2,.48-.2s.34,.07,.46,.2c.13,.13,.19,.29,.19,.48s-.06,.35-.19,.48c-.13,.13-.28,.2-.46,.2s-.35-.07-.48-.2Zm.96,1.16v5.97h-.99v-5.97h.99Z" fill="#002346"></path>
      <path d="M664.86,409.18c.39,.22,.68,.51,.87,.85v-1.09h1v6.1c0,.54-.12,1.03-.35,1.45s-.57,.76-1,1c-.43,.24-.93,.36-1.51,.36-.78,0-1.44-.19-1.96-.56-.52-.37-.83-.87-.93-1.51h.98c.11,.36,.33,.65,.68,.88,.34,.22,.75,.33,1.23,.33,.54,0,.99-.17,1.33-.51s.52-.82,.52-1.44v-1.25c-.2,.35-.49,.64-.87,.87s-.84,.35-1.35,.35-1.01-.13-1.44-.39c-.43-.26-.77-.63-1.02-1.1-.25-.47-.37-1.01-.37-1.61s.12-1.14,.37-1.61,.59-.82,1.02-1.07c.43-.25,.91-.38,1.44-.38s.97,.11,1.36,.34Zm.59,1.56c-.18-.33-.43-.59-.74-.77-.31-.18-.65-.27-1.02-.27s-.71,.09-1.01,.26-.55,.43-.73,.76-.27,.73-.27,1.18,.09,.85,.27,1.19,.43,.6,.73,.77c.3,.18,.64,.27,1.01,.27s.71-.09,1.02-.27c.31-.18,.55-.44,.74-.77,.18-.34,.27-.73,.27-1.18s-.09-.84-.27-1.18Z" fill="#002346"></path>
      <path d="M673.07,409.49c.45,.44,.68,1.07,.68,1.9v3.52h-.98v-3.37c0-.59-.15-1.05-.45-1.37s-.7-.47-1.22-.47-.94,.16-1.25,.49c-.31,.33-.46,.8-.46,1.43v3.3h-.99v-5.97h.99v.85c.2-.3,.46-.54,.8-.71,.34-.17,.71-.25,1.12-.25,.72,0,1.31,.22,1.76,.66Z" fill="#002346"></path>
    </g>
    <g>
      <path d="M579.86,408.75v.81h-2.07v6.78h-.99v-6.78h-2.08v-.81h5.14Z" fill="#002346"></path>
      <path d="M582.82,410.55c.32-.19,.72-.28,1.18-.28v1.02h-.26c-1.11,0-1.67,.6-1.67,1.81v3.24h-.99v-5.97h.99v.97c.17-.34,.42-.61,.75-.79Z" fill="#002346"></path>
      <path d="M585.14,411.73c.25-.46,.59-.82,1.02-1.07,.43-.25,.91-.38,1.44-.38s.98,.11,1.36,.34c.38,.22,.67,.51,.86,.85v-1.09h1v5.97h-1v-1.11c-.2,.35-.49,.64-.88,.87-.39,.23-.84,.34-1.35,.34s-1.01-.13-1.44-.39c-.43-.26-.77-.63-1.01-1.1-.25-.47-.37-1.01-.37-1.61s.12-1.14,.37-1.61Zm4.41,.44c-.18-.33-.43-.59-.74-.77-.31-.18-.65-.27-1.02-.27s-.71,.09-1.01,.26-.55,.43-.73,.76-.27,.73-.27,1.18,.09,.85,.27,1.19,.43,.6,.73,.77c.3,.18,.64,.27,1.01,.27s.71-.09,1.02-.27c.31-.18,.55-.44,.74-.77,.18-.34,.27-.73,.27-1.18s-.09-.84-.27-1.18Z" fill="#002346"></path>
      <path d="M597.17,410.92c.45,.44,.68,1.07,.68,1.9v3.52h-.98v-3.37c0-.59-.15-1.05-.45-1.37s-.7-.47-1.22-.47-.94,.16-1.25,.49c-.31,.33-.46,.8-.46,1.43v3.3h-.99v-5.97h.99v.85c.2-.3,.46-.54,.8-.71,.34-.17,.71-.25,1.12-.25,.72,0,1.31,.22,1.76,.66Z" fill="#002346"></path>
      <path d="M600.35,416.2c-.36-.16-.65-.37-.86-.65-.21-.28-.33-.6-.35-.96h1.02c.03,.3,.17,.54,.42,.73s.58,.28,.98,.28c.38,0,.68-.08,.89-.25,.22-.17,.33-.38,.33-.63s-.12-.45-.35-.58c-.23-.13-.59-.25-1.08-.38-.44-.12-.8-.23-1.08-.35-.28-.12-.52-.3-.72-.53-.2-.24-.3-.55-.3-.93,0-.3,.09-.58,.27-.84,.18-.25,.44-.46,.77-.6,.33-.15,.71-.22,1.14-.22,.66,0,1.19,.17,1.6,.5,.41,.33,.63,.79,.65,1.37h-.99c-.02-.31-.15-.56-.38-.75-.23-.19-.54-.28-.92-.28-.36,0-.64,.08-.85,.23-.21,.15-.31,.35-.31,.6,0,.2,.06,.36,.19,.48,.13,.13,.29,.23,.48,.31,.19,.08,.46,.16,.8,.26,.43,.12,.78,.23,1.04,.34,.27,.11,.5,.28,.69,.51,.19,.22,.29,.52,.3,.88,0,.33-.09,.62-.27,.88-.18,.26-.44,.47-.77,.61-.33,.15-.71,.22-1.14,.22-.46,0-.87-.08-1.23-.23Z" fill="#002346"></path>
      <path d="M607.57,411.19h-1.25v5.15h-.99v-5.15h-.77v-.82h.77v-.42c0-.67,.17-1.16,.52-1.46s.9-.46,1.66-.46v.83c-.44,0-.74,.09-.92,.26-.18,.17-.27,.45-.27,.84v.42h1.25v.82Z" fill="#002346"></path>
      <path d="M609.81,416.06c-.45-.25-.81-.62-1.07-1.08-.26-.47-.39-1.01-.39-1.63s.13-1.15,.4-1.62c.26-.47,.63-.83,1.08-1.08s.97-.38,1.53-.38,1.08,.12,1.53,.38,.82,.61,1.08,1.07c.26,.46,.4,1.01,.4,1.62s-.14,1.16-.41,1.63c-.27,.47-.64,.83-1.1,1.08-.47,.25-.98,.38-1.55,.38s-1.07-.13-1.52-.38Zm2.52-.74c.31-.17,.56-.42,.76-.75,.19-.33,.29-.74,.29-1.22s-.09-.89-.28-1.22-.44-.58-.74-.75c-.3-.16-.64-.24-.99-.24s-.7,.08-.99,.24c-.3,.16-.54,.41-.72,.75s-.27,.74-.27,1.22,.09,.9,.27,1.23c.18,.33,.41,.58,.71,.75s.62,.25,.98,.25,.69-.08,1-.25Z" fill="#002346"></path>
      <path d="M617.43,410.55c.32-.19,.72-.28,1.18-.28v1.02h-.26c-1.11,0-1.67,.6-1.67,1.81v3.24h-.99v-5.97h.99v.97c.17-.34,.42-.61,.75-.79Z" fill="#002346"></path>
      <path d="M628.17,410.55c.36,.19,.65,.48,.86,.87,.21,.38,.31,.85,.31,1.4v3.52h-.98v-3.37c0-.59-.15-1.05-.44-1.37s-.69-.47-1.19-.47-.92,.17-1.23,.5c-.31,.33-.46,.81-.46,1.43v3.29h-.98v-3.37c0-.59-.15-1.05-.44-1.37-.3-.32-.69-.47-1.19-.47s-.92,.17-1.23,.5c-.3,.33-.46,.81-.46,1.43v3.29h-.99v-5.97h.99v.86c.2-.31,.46-.55,.79-.72,.33-.17,.69-.25,1.09-.25,.5,0,.94,.11,1.33,.34s.67,.56,.86,.99c.17-.42,.44-.75,.83-.98s.81-.35,1.29-.35,.88,.1,1.24,.29Z" fill="#002346"></path>
    </g>
    <line x1="638.94" y1="428.45" x2="638.94" y2="396.11" fill="none" stroke="#002346" stroke-linecap="round" stroke-linejoin="round"></line>
    <g>
      <path d="M673.07,472.81h-13.53v-13.53h13.53v13.53Z" fill="none" stroke="#002346" stroke-linecap="round" stroke-linejoin="round"></path>
      <path d="M679.31,479.03h-13.53v-13.53h13.53v13.53Z" fill="none" stroke="#002346" stroke-linecap="round" stroke-linejoin="round"></path>
      <rect x="666.33" y="466.05" width="6.22" height="6.22" fill="#002346"></rect>
    </g>
    <g>
      <path d="M709.62,524.16h-12.81v-12.81h12.81v12.81Z" fill="none" stroke="#002346" stroke-linecap="round" stroke-linejoin="round" stroke-width=".5"></path>
      <path d="M716.21,530.83h-13.53v-13.53h13.53v13.53Z" fill="none" stroke="#002346" stroke-linecap="round" stroke-linejoin="round"></path>
      <rect x="703.23" y="517.77" width="6.22" height="6.22" fill="#002346"></rect>
    </g>
    <g>
      <path d="M748.32,524.88h-13.53v-13.53h13.53v13.53Z" fill="none" stroke="#002346" stroke-linecap="round" stroke-linejoin="round"></path>
      <path d="M754.54,531.2h-13.53v-13.53h13.53v13.53Z" fill="none" stroke="#002346" stroke-linecap="round" stroke-linejoin="round"></path>
    </g>
    <g>
      <polygon points="786.11 517.89 786.11 524.12 779.88 524.12 779.88 530.34 792.35 530.34 792.35 517.89 786.11 517.89" fill="#0d2445"></polygon>
      <path d="M786.65,524.64h-13.53v-13.53h13.53v13.53Z" fill="none" stroke="#002346" stroke-linecap="round" stroke-linejoin="round"></path>
    </g>
    <g>
      <polygon points="590.54 516.86 597.48 516.86 597.48 511.35 585.01 511.35 585.01 523.8 590.54 523.8 590.54 516.86" fill="#002346"></polygon>
      <rect x="591.95" y="518.27" width="4.81" height="4.81" fill="#002346"></rect>
      <polygon points="598.17 517.57 598.17 524.51 591.25 524.51 591.25 530.04 603.7 530.04 603.7 517.57 598.17 517.57" fill="#002346"></polygon>
    </g>
    <g>
      <polygon points="709.28 466.04 709.28 459.81 696.81 459.81 696.81 472.28 703.03 472.28 703.03 466.04 709.28 466.04" fill="#002346"></polygon>
      <polygon points="709.28 466.04 709.28 472.28 703.03 472.28 703.03 478.5 715.5 478.5 715.5 466.04 709.28 466.04" fill="#002346"></polygon>
    </g>
    <g>
      <polygon points="626.9 517.11 634.74 517.11 634.74 511.35 622.28 511.35 622.28 523.82 626.9 523.82 626.9 517.11" fill="#002346"></polygon>
      <rect x="628.15" y="518.52" width="12.81" height="11.52" fill="#002346"></rect>
    </g>
    <polygon points="671.99 517.59 671.99 511.35 659.54 511.35 659.54 523.82 664.88 523.82 664.88 518.13 666.29 518.13 666.29 530.04 678.23 530.04 678.23 517.59 671.99 517.59" fill="#002346"></polygon>
    <g>
      <rect x="585.01" y="459.81" width="12.47" height="12.47" fill="#002346"></rect>
      <rect x="591.23" y="466.04" width="12.47" height="12.47" fill="#002346"></rect>
    </g>
    <g>
      <polygon points="628.52 465.15 634.74 465.15 634.74 460.02 622.28 460.02 622.28 472.48 628.52 472.48 628.52 465.15" fill="#002346"></polygon>
      <rect x="628.92" y="465.83" width="12.47" height="12.47" fill="none" stroke="#002346" stroke-miterlimit="10"></rect>
    </g>
    <g>
      <path d="M575.62,446.94c-.28-.12-.49-.3-.65-.52-.16-.22-.24-.48-.24-.77h.74c.03,.25,.13,.46,.31,.63,.18,.17,.44,.26,.79,.26s.59-.08,.78-.25c.19-.17,.29-.38,.29-.64,0-.2-.06-.37-.17-.5s-.25-.22-.42-.29c-.17-.07-.39-.14-.68-.21-.35-.09-.63-.18-.84-.27-.21-.09-.39-.23-.54-.43-.15-.2-.23-.46-.23-.79,0-.29,.07-.55,.22-.77,.15-.22,.35-.4,.62-.52,.27-.12,.57-.18,.92-.18,.5,0,.91,.12,1.22,.37,.32,.25,.5,.58,.54,.99h-.76c-.03-.2-.13-.38-.32-.54-.19-.15-.44-.23-.75-.23-.29,0-.53,.07-.71,.22s-.27,.36-.27,.63c0,.19,.05,.35,.16,.47,.11,.12,.24,.21,.4,.28,.16,.06,.38,.14,.67,.22,.35,.1,.63,.19,.85,.29s.4,.24,.55,.43,.23,.46,.23,.8c0,.26-.07,.5-.21,.73-.14,.23-.34,.41-.61,.56s-.59,.21-.95,.21-.66-.06-.94-.19Z" fill="#002346"></path>
      <path d="M582.27,443.02c.25,.14,.45,.34,.6,.61,.14,.27,.22,.6,.22,.98v2.46h-.69v-2.36c0-.42-.1-.74-.31-.96-.21-.22-.49-.33-.85-.33s-.66,.11-.87,.34-.32,.56-.32,1v2.31h-.69v-5.64h.69v2.06c.14-.21,.33-.38,.57-.5s.51-.17,.81-.17c.31,0,.6,.07,.85,.2Z" fill="#002346"></path>
      <path d="M584.22,443.85c.17-.32,.41-.57,.71-.75,.3-.18,.64-.27,1.01-.27s.68,.08,.95,.24c.27,.16,.47,.36,.6,.59v-.76h.7v4.18h-.7v-.78c-.14,.24-.34,.45-.61,.61s-.59,.24-.95,.24-.71-.09-1.01-.27c-.3-.18-.54-.44-.71-.77-.17-.33-.26-.71-.26-1.13s.09-.8,.26-1.12Zm3.09,.31c-.13-.23-.3-.41-.51-.54s-.45-.19-.71-.19-.5,.06-.71,.18c-.21,.12-.38,.3-.51,.53s-.19,.51-.19,.82,.06,.6,.19,.83,.3,.42,.51,.54c.21,.12,.45,.19,.71,.19s.5-.06,.71-.19,.39-.31,.51-.54c.13-.24,.19-.51,.19-.83s-.06-.59-.19-.82Z" fill="#002346"></path>
      <path d="M590.68,443.07c.27-.16,.59-.24,.95-.24s.71,.09,1.01,.27c.3,.18,.54,.43,.71,.75,.17,.32,.26,.7,.26,1.12s-.09,.8-.26,1.13c-.17,.33-.41,.59-.71,.77-.3,.18-.64,.27-1.01,.27s-.67-.08-.94-.24c-.27-.16-.48-.36-.62-.6v2.75h-.69v-6.16h.69v.77c.14-.24,.34-.44,.61-.6Zm2.03,1.08c-.13-.23-.3-.41-.51-.53-.22-.12-.45-.18-.71-.18s-.49,.06-.7,.19-.39,.3-.52,.54c-.13,.24-.19,.51-.19,.82s.06,.59,.19,.83,.3,.42,.52,.54,.45,.19,.7,.19,.5-.06,.71-.19,.39-.31,.51-.54c.13-.24,.19-.51,.19-.83s-.06-.59-.19-.82Z" fill="#002346"></path>
      <path d="M598.31,445.25h-3.34c.03,.41,.17,.73,.42,.96,.26,.23,.57,.35,.93,.35,.3,0,.55-.07,.75-.21s.34-.33,.42-.56h.75c-.11,.4-.33,.73-.67,.98-.33,.25-.75,.38-1.25,.38-.4,0-.75-.09-1.06-.27-.31-.18-.56-.43-.74-.76-.18-.33-.27-.71-.27-1.14s.09-.81,.26-1.14c.17-.33,.42-.58,.73-.75,.31-.17,.67-.26,1.08-.26s.75,.09,1.05,.26,.54,.41,.7,.71c.16,.3,.25,.64,.25,1.02,0,.13,0,.27-.02,.42Zm-.87-1.25c-.12-.19-.28-.33-.48-.43-.2-.1-.42-.15-.67-.15-.35,0-.65,.11-.9,.34-.25,.22-.39,.53-.42,.93h2.64c0-.26-.06-.49-.18-.68Z" fill="#002346"></path>
      <path d="M606.67,441.8v5.27h-.69v-3.93l-1.75,3.93h-.49l-1.76-3.94v3.94h-.69v-5.27h.75l1.95,4.36,1.95-4.36h.74Z" fill="#002346"></path>
      <path d="M608.6,446.88c-.32-.18-.57-.43-.75-.76-.18-.33-.27-.71-.27-1.14s.09-.8,.28-1.13c.18-.33,.44-.58,.76-.75,.32-.17,.68-.26,1.07-.26s.75,.09,1.07,.26c.32,.18,.57,.43,.76,.75,.18,.32,.28,.7,.28,1.14s-.09,.81-.29,1.14c-.19,.33-.45,.58-.77,.76-.33,.18-.69,.27-1.08,.27s-.75-.09-1.06-.27Zm1.76-.52c.22-.12,.39-.29,.53-.53,.13-.23,.2-.52,.2-.85s-.07-.62-.2-.85c-.13-.23-.3-.41-.52-.52s-.44-.17-.69-.17-.49,.06-.7,.17c-.21,.11-.38,.29-.51,.52s-.19,.52-.19,.85,.06,.63,.19,.86c.13,.23,.29,.41,.5,.52s.44,.17,.69,.17,.48-.06,.7-.18Z" fill="#002346"></path>
      <path d="M612.72,443.85c.17-.32,.41-.57,.71-.75,.3-.18,.64-.27,1.02-.27,.33,0,.63,.07,.91,.22s.49,.35,.64,.59v-2.21h.7v5.64h-.7v-.79c-.14,.25-.34,.45-.61,.61-.27,.16-.58,.24-.95,.24s-.71-.09-1.01-.27-.54-.44-.71-.77c-.17-.33-.26-.71-.26-1.13s.09-.8,.26-1.12Zm3.09,.31c-.13-.23-.3-.41-.51-.54s-.45-.19-.71-.19-.5,.06-.71,.18c-.21,.12-.38,.3-.51,.53s-.19,.51-.19,.82,.06,.6,.19,.83,.3,.42,.51,.54c.21,.12,.45,.19,.71,.19s.5-.06,.71-.19,.39-.31,.51-.54c.13-.24,.19-.51,.19-.83s-.06-.59-.19-.82Z" fill="#002346"></path>
      <path d="M621.66,445.25h-3.34c.03,.41,.17,.73,.42,.96,.26,.23,.57,.35,.93,.35,.3,0,.55-.07,.75-.21s.34-.33,.42-.56h.75c-.11,.4-.33,.73-.67,.98-.33,.25-.75,.38-1.25,.38-.4,0-.75-.09-1.06-.27-.31-.18-.56-.43-.74-.76-.18-.33-.27-.71-.27-1.14s.09-.81,.26-1.14c.17-.33,.42-.58,.73-.75,.31-.17,.67-.26,1.08-.26s.75,.09,1.05,.26,.54,.41,.7,.71c.16,.3,.25,.64,.25,1.02,0,.13,0,.27-.02,.42Zm-.87-1.25c-.12-.19-.28-.33-.48-.43-.2-.1-.42-.15-.67-.15-.35,0-.65,.11-.9,.34-.25,.22-.39,.53-.42,.93h2.64c0-.26-.06-.49-.18-.68Z" fill="#002346"></path>
      <path d="M623.21,446.98c-.25-.11-.45-.26-.6-.46-.15-.2-.23-.42-.24-.67h.72c.02,.21,.12,.38,.29,.51,.18,.13,.41,.2,.69,.2,.26,0,.47-.06,.63-.18,.15-.12,.23-.26,.23-.44s-.08-.32-.24-.41-.41-.18-.75-.26c-.31-.08-.56-.16-.76-.25-.2-.08-.36-.21-.5-.37-.14-.16-.21-.38-.21-.65,0-.21,.06-.41,.19-.59,.13-.18,.31-.32,.54-.42s.5-.16,.8-.16c.46,0,.84,.12,1.12,.35,.28,.23,.44,.55,.46,.96h-.69c-.01-.22-.1-.39-.26-.53-.16-.13-.38-.2-.64-.2-.25,0-.45,.05-.59,.16-.15,.11-.22,.25-.22,.42,0,.14,.04,.25,.13,.34,.09,.09,.2,.16,.34,.21,.13,.05,.32,.11,.56,.18,.3,.08,.54,.16,.73,.24s.35,.2,.48,.35,.2,.36,.21,.62c0,.23-.06,.43-.19,.62-.13,.18-.31,.33-.54,.43-.23,.1-.5,.16-.8,.16-.32,0-.61-.05-.86-.16Z" fill="#002346"></path>
      <path d="M626.46,443.72c-.09-.09-.14-.2-.14-.34s.05-.24,.14-.33,.2-.14,.34-.14,.23,.05,.32,.14c.09,.09,.13,.2,.13,.33s-.04,.24-.13,.34c-.09,.09-.2,.14-.32,.14-.13,0-.24-.05-.34-.14Zm0,3.26c-.09-.09-.14-.2-.14-.34s.05-.24,.14-.34,.2-.14,.34-.14,.23,.05,.32,.14c.09,.09,.13,.2,.13,.34s-.04,.24-.13,.34c-.09,.09-.2,.14-.32,.14-.13,0-.24-.05-.34-.14Z" fill="#002346"></path>
    </g>
    <g>
      <path d="M577.97,498.84c-.3,.29-.76,.44-1.38,.44h-1.02v2.22h-.69v-5.31h1.71c.6,0,1.06,.14,1.37,.43,.31,.29,.47,.66,.47,1.12s-.15,.81-.45,1.1Zm-.53-.38c.18-.17,.27-.41,.27-.72,0-.66-.38-.98-1.13-.98h-1.02v1.95h1.02c.39,0,.67-.08,.85-.25Z" fill="#002346"></path>
      <path d="M579.29,498.27c.17-.32,.41-.57,.71-.75,.3-.18,.64-.27,1.01-.27s.68,.08,.95,.24c.27,.16,.47,.36,.6,.59v-.76h.7v4.18h-.7v-.78c-.14,.24-.34,.45-.61,.61s-.59,.24-.95,.24-.71-.09-1.01-.27c-.3-.18-.54-.44-.71-.77-.17-.33-.26-.71-.26-1.13s.09-.8,.26-1.12Zm3.09,.31c-.13-.23-.3-.41-.51-.54s-.45-.19-.71-.19-.5,.06-.71,.18c-.21,.12-.38,.3-.51,.53s-.19,.51-.19,.82,.06,.6,.19,.83,.3,.42,.51,.54c.21,.12,.45,.19,.71,.19s.5-.06,.71-.19,.39-.31,.51-.54c.13-.24,.19-.51,.19-.83s-.06-.59-.19-.82Z" fill="#002346"></path>
      <path d="M585.28,497.9v2.46c0,.2,.04,.35,.13,.43,.09,.08,.24,.13,.45,.13h.51v.59h-.63c-.39,0-.68-.09-.87-.27-.19-.18-.29-.47-.29-.88v-2.46h-.54v-.57h.54v-1.05h.69v1.05h1.09v.57h-1.09Z" fill="#002346"></path>
      <path d="M590.14,497.45c.25,.14,.45,.34,.6,.61,.14,.27,.22,.6,.22,.98v2.46h-.69v-2.36c0-.42-.1-.74-.31-.96-.21-.22-.49-.33-.85-.33s-.66,.11-.87,.34-.32,.56-.32,1v2.31h-.69v-5.64h.69v2.06c.14-.21,.33-.38,.57-.5s.51-.17,.81-.17c.31,0,.6,.07,.85,.2Z" fill="#002346"></path>
      <path d="M593.79,497.9h-.88v3.6h-.69v-3.6h-.54v-.57h.54v-.3c0-.47,.12-.81,.36-1.02,.24-.22,.63-.32,1.16-.32v.58c-.3,0-.52,.06-.64,.18-.12,.12-.19,.32-.19,.59v.3h.88v.57Z" fill="#002346"></path>
      <path d="M594.62,496.51c-.09-.09-.14-.2-.14-.34s.05-.24,.14-.34,.2-.14,.34-.14,.23,.05,.32,.14c.09,.09,.13,.2,.13,.34s-.04,.24-.13,.34c-.09,.09-.2,.14-.32,.14s-.24-.05-.34-.14Zm.67,.82v4.18h-.69v-4.18h.69Z" fill="#002346"></path>
      <path d="M599.74,497.71c.31,.31,.47,.75,.47,1.33v2.46h-.69v-2.36c0-.42-.1-.74-.31-.96-.21-.22-.49-.33-.85-.33s-.66,.11-.87,.34-.32,.56-.32,1v2.31h-.69v-4.18h.69v.59c.14-.21,.32-.38,.56-.5s.5-.17,.78-.17c.51,0,.92,.15,1.23,.46Z" fill="#002346"></path>
      <path d="M601.34,498.27c.17-.32,.41-.57,.71-.75,.3-.18,.64-.27,1.02-.27,.33,0,.63,.07,.91,.22s.49,.35,.64,.59v-2.21h.7v5.64h-.7v-.79c-.14,.25-.34,.45-.61,.61-.27,.16-.58,.24-.95,.24s-.71-.09-1.01-.27-.54-.44-.71-.77c-.17-.33-.26-.71-.26-1.13s.09-.8,.26-1.12Zm3.09,.31c-.13-.23-.3-.41-.51-.54s-.45-.19-.71-.19-.5,.06-.71,.18c-.21,.12-.38,.3-.51,.53s-.19,.51-.19,.82,.06,.6,.19,.83,.3,.42,.51,.54c.21,.12,.45,.19,.71,.19s.5-.06,.71-.19,.39-.31,.51-.54c.13-.24,.19-.51,.19-.83s-.06-.59-.19-.82Z" fill="#002346"></path>
      <path d="M610.28,499.67h-3.34c.03,.41,.17,.73,.42,.96,.26,.23,.57,.35,.93,.35,.3,0,.55-.07,.75-.21s.34-.33,.42-.56h.75c-.11,.4-.33,.73-.67,.98-.33,.25-.75,.38-1.25,.38-.4,0-.75-.09-1.06-.27-.31-.18-.56-.43-.74-.76-.18-.33-.27-.71-.27-1.14s.09-.81,.26-1.14c.17-.33,.42-.58,.73-.75,.31-.17,.67-.26,1.08-.26s.75,.09,1.05,.26,.54,.41,.7,.71c.16,.3,.25,.64,.25,1.02,0,.13,0,.27-.02,.42Zm-.87-1.25c-.12-.19-.28-.33-.48-.43-.2-.1-.42-.15-.67-.15-.35,0-.65,.11-.9,.34-.25,.22-.39,.53-.42,.93h2.64c0-.26-.06-.49-.18-.68Z" fill="#002346"></path>
      <path d="M612.44,497.45c.23-.13,.5-.2,.83-.2v.72h-.18c-.78,0-1.17,.42-1.17,1.26v2.27h-.69v-4.18h.69v.68c.12-.24,.3-.42,.52-.56Z" fill="#002346"></path>
      <path d="M614.68,501.41c-.25-.11-.45-.26-.6-.46-.15-.2-.23-.42-.24-.67h.72c.02,.21,.12,.38,.29,.51,.18,.13,.41,.2,.69,.2,.26,0,.47-.06,.63-.18,.15-.12,.23-.26,.23-.44s-.08-.32-.24-.41-.41-.18-.75-.26c-.31-.08-.56-.16-.76-.25-.2-.08-.36-.21-.5-.37-.14-.16-.21-.38-.21-.65,0-.21,.06-.41,.19-.59,.13-.18,.31-.32,.54-.42s.5-.16,.8-.16c.46,0,.84,.12,1.12,.35,.28,.23,.44,.55,.46,.96h-.69c-.01-.22-.1-.39-.26-.53-.16-.13-.38-.2-.64-.2-.25,0-.45,.05-.59,.16-.15,.11-.22,.25-.22,.42,0,.14,.04,.25,.13,.34,.09,.09,.2,.16,.34,.21,.13,.05,.32,.11,.56,.18,.3,.08,.54,.16,.73,.24s.35,.2,.48,.35,.2,.36,.21,.62c0,.23-.06,.43-.19,.62-.13,.18-.31,.33-.54,.43-.23,.1-.5,.16-.8,.16-.32,0-.61-.05-.86-.16Z" fill="#002346"></path>
      <path d="M617.92,498.15c-.09-.09-.14-.2-.14-.34s.05-.24,.14-.33,.2-.14,.34-.14,.23,.05,.32,.14c.09,.09,.13,.2,.13,.33s-.04,.24-.13,.34c-.09,.09-.2,.14-.32,.14-.13,0-.24-.05-.34-.14Zm0,3.26c-.09-.09-.14-.2-.14-.34s.05-.24,.14-.34,.2-.14,.34-.14,.23,.05,.32,.14c.09,.09,.13,.2,.13,.34s-.04,.24-.13,.34c-.09,.09-.2,.14-.32,.14-.13,0-.24-.05-.34-.14Z" fill="#002346"></path>
    </g>
  </g>
</svg>
